<svg width="24" height="24" viewBox="0 0 24 24" fill="none" xmlns="http://www.w3.org/2000/svg">
<path d="M10.125 16.8571V20C10.125 20.5523 9.67728 21 9.125 21H5.5C4.94772 21 4.5 20.5523 4.5 20V10.3484C4.5 9.76459 4.75512 9.20989 5.19842 8.82993L10.6984 4.11564C11.4474 3.47366 12.5526 3.47366 13.3016 4.11564L18.8016 8.82993C19.2449 9.20989 19.5 9.76459 19.5 10.3484V20C19.5 20.5523 19.0523 21 18.5 21H14.875C14.3227 21 13.875 20.5523 13.875 20V16.8571C13.875 16.3049 13.4273 15.8571 12.875 15.8571H11.125C10.5727 15.8571 10.125 16.3049 10.125 16.8571Z" fill="#454440"/>
</svg>
